<?xml version="1.0" standalone="no"?>
<!DOCTYPE svg PUBLIC "-//W3C//DTD SVG 20010904//EN"
 "http://www.w3.org/TR/2001/REC-SVG-20010904/DTD/svg10.dtd">
<svg version="1.0" xmlns="http://www.w3.org/2000/svg"
 width="480.000000pt" height="480.000000pt" viewBox="0 0 480.000000 480.000000"
 preserveAspectRatio="xMidYMid meet">
<metadata>
Created by potrace 1.14, written by Peter Selinger 2001-2017
</metadata>
<g transform="translate(0.000000,480.000000) scale(0.100000,-0.100000)"
fill="#000000" stroke="none">
<path d="M2119 3999 c-18 -4 -52 -10 -74 -13 -189 -30 -378 -123 -522 -258
-83 -77 -183 -204 -183 -233 0 -8 -4 -15 -10 -15 -5 0 -10 -6 -10 -13 0 -8 -6
-27 -14 -43 -8 -16 -27 -69 -41 -119 -30 -102 -31 -107 -45 -190 -18 -104 -18
-110 -19 -132 -1 -13 -9 -24 -21 -28 -11 -4 -43 -29 -70 -56 -54 -54 -124
-186 -133 -253 -4 -23 -15 -44 -27 -53 -27 -19 -25 -49 4 -68 17 -11 31 -38
46 -88 34 -114 99 -197 192 -247 l44 -23 -2 -166 c-2 -139 2 -186 21 -290 37
-188 70 -294 140 -436 113 -233 228 -366 380 -441 49 -25 101 -47 115 -50 14
-2 44 -8 68 -13 68 -14 288 -6 387 13 96 19 244 70 337 117 252 127 460 345
513 539 2 8 15 42 29 75 13 33 27 74 30 90 2 17 9 45 15 64 6 19 9 37 6 39 -2
3 0 12 4 21 16 29 36 183 40 298 1 42 24 63 69 63 57 0 102 35 131 102 36 85
55 189 55 303 0 93 -3 118 -23 162 -31 71 -62 97 -111 96 -22 0 -41 3 -41 8
-1 5 -2 12 -3 17 -1 4 -6 32 -10 62 -9 60 -12 78 -21 130 -4 19 -9 46 -11 60
-10 56 -54 221 -79 295 -25 74 -80 194 -94 205 -3 3 -13 18 -21 34 -14 28
-121 141 -170 181 -69 56 -211 137 -312 179 -48 19 -178 56 -217 61 -17 2 -41
7 -53 11 -30 9 -245 11 -289 3z m-923 -1135 c-3 -8 -1 -36 5 -62 14 -65 20
-107 25 -177 2 -33 4 -60 4 -60 1 0 3 -43 5 -95 1 -60 -2 -100 -9 -109 -8 -11
-8 -13 1 -8 9 6 12 -9 12 -54 -1 -41 -4 -58 -10 -48 -5 8 -9 10 -9 6 0 -5 -14
1 -30 13 -17 12 -28 26 -24 31 3 5 0 8 -8 7 -7 -2 -12 3 -10 10 1 6 -3 11 -8
10 -16 -4 -71 102 -73 139 -1 18 -6 33 -11 33 -5 0 -6 3 -3 7 4 3 2 12 -4 20
-9 10 -8 13 2 13 10 0 10 3 1 12 -9 9 -7 14 6 25 14 11 14 12 1 8 -10 -4 -16
0 -16 10 0 8 7 15 16 15 10 0 12 3 5 8 -12 8 -14 62 -1 62 4 0 6 4 3 8 -7 12
51 117 64 114 6 -1 9 2 6 7 -4 5 7 24 23 40 33 34 46 39 37 15z"/>
<path d="M1175 2811 c-3 -5 -2 -12 3 -15 5 -3 9 1 9 9 0 17 -3 19 -12 6z"/>
<path d="M1116 2758 c3 -5 10 -6 15 -3 13 9 11 12 -6 12 -8 0 -12 -4 -9 -9z"/>
<path d="M1215 2420 c3 -5 8 -10 11 -10 2 0 4 5 4 10 0 6 -5 10 -11 10 -5 0
-7 -4 -4 -10z"/>
</g>
</svg>
